<svg width="65" height="37" viewBox="0 0 65 37" fill="none" xmlns="http://www.w3.org/2000/svg">
<g opacity="0.5">
<path d="M48.7638 21.4887C48.7817 21.4887 48.7996 21.4886 48.8174 21.4884C49.639 21.4791 50.4094 21.2567 51.0759 20.8738C52.0158 20.3338 52.7491 19.4748 53.128 18.4446C53.1571 18.3654 53.1841 18.2853 53.2089 18.2042C53.3411 17.7729 53.4122 17.3149 53.4122 16.8403C53.4122 16.2765 53.3118 15.7361 53.128 15.236C52.4746 13.4593 50.7672 12.1919 48.7638 12.1919C47.7813 12.1919 46.8699 12.4967 46.1192 13.017C44.9084 13.8561 44.1154 15.2556 44.1154 16.8403C44.1154 17.2542 44.1695 17.6554 44.271 18.0374C44.5581 19.1178 45.2246 20.0436 46.1192 20.6635C46.6723 21.0469 47.3126 21.3133 48.0043 21.4269C48.2514 21.4676 48.5052 21.4887 48.7638 21.4887Z" fill="#F23C5B"/>
<path d="M34.9722 36.9275C39.3807 36.9275 43.0475 33.7517 43.8097 29.5631C43.9052 29.0381 43.9551 28.4972 43.9551 27.9446C43.9551 27.9093 43.9549 27.8739 43.9545 27.8387C43.9386 26.4633 43.6136 25.1622 43.0457 24.0017C42.0558 21.9785 40.3277 20.3822 38.2123 19.5639C37.9411 19.4589 37.6634 19.3667 37.3802 19.2881C36.9628 19.1723 36.5333 19.0858 36.0939 19.0311C35.7264 18.9853 35.3521 18.9617 34.9722 18.9617C34.0473 18.9617 33.155 19.1015 32.3154 19.3611C29.0905 20.3581 26.6419 23.1226 26.1011 26.5227C26.0275 26.9859 25.9892 27.4608 25.9892 27.9446C25.9892 28.2459 26.0041 28.5437 26.033 28.8373C26.1857 30.3851 26.7313 31.8175 27.5687 33.0334C29.1885 35.3856 31.9003 36.9275 34.9722 36.9275Z" fill="#F23C5B"/>
<path d="M44.271 18.0374C44.1695 17.6554 44.1154 17.2542 44.1154 16.8403C44.1154 15.2556 44.9084 13.8561 46.1192 13.017C44.4464 13.7788 43.9074 16.3903 43.8307 17.6419C43.7444 19.0513 42.7094 20.3177 40.7397 19.9417C39.5863 19.7215 38.4125 19.4777 37.3802 19.2881C37.6634 19.3667 37.9411 19.4589 38.2123 19.5639C40.3277 20.3822 42.0558 21.9785 43.0457 24.0017C43.6136 25.1622 43.9386 26.4633 43.9545 27.8387C44.0428 26.3839 43.8452 25.376 43.8307 24.1002C43.8097 22.2347 45.5109 21.4887 46.6403 21.4887C46.6403 21.4887 47.6881 21.4368 48.299 21.4657C48.1998 21.4559 48.1015 21.4429 48.0043 21.4269C47.3126 21.3133 46.6723 21.0469 46.1192 20.6635C45.2246 20.0436 44.5581 19.1178 44.271 18.0374Z" fill="#F23C5B"/>
</g>
<g opacity="0.5">
<path d="M48.7638 21.4887C48.7817 21.4887 48.7996 21.4886 48.8174 21.4884C49.639 21.4791 50.4094 21.2567 51.0759 20.8738C52.0158 20.3338 52.7491 19.4748 53.128 18.4446C53.1571 18.3654 53.1841 18.2853 53.2089 18.2042C53.3411 17.7729 53.4122 17.3149 53.4122 16.8403C53.4122 16.2765 53.3118 15.7361 53.128 15.236C52.4746 13.4593 50.7672 12.1919 48.7638 12.1919C47.7813 12.1919 46.8699 12.4967 46.1192 13.017C44.9084 13.8561 44.1154 15.2556 44.1154 16.8403C44.1154 17.2542 44.1695 17.6554 44.271 18.0374C44.5581 19.1178 45.2246 20.0436 46.1192 20.6635C46.6723 21.0469 47.3126 21.3133 48.0043 21.4269C48.2514 21.4676 48.5052 21.4887 48.7638 21.4887Z" fill="white"/>
<path d="M34.9722 36.9275C39.3807 36.9275 43.0475 33.7517 43.8097 29.5631C43.9052 29.0381 43.9551 28.4972 43.9551 27.9446C43.9551 27.9093 43.9549 27.8739 43.9545 27.8387C43.9386 26.4633 43.6136 25.1622 43.0457 24.0017C42.0558 21.9785 40.3277 20.3822 38.2123 19.5639C37.9411 19.4589 37.6634 19.3667 37.3802 19.2881C36.9628 19.1723 36.5333 19.0858 36.0939 19.0311C35.7264 18.9853 35.3521 18.9617 34.9722 18.9617C34.0473 18.9617 33.155 19.1015 32.3154 19.3611C29.0905 20.3581 26.6419 23.1226 26.1011 26.5227C26.0275 26.9859 25.9892 27.4608 25.9892 27.9446C25.9892 28.2459 26.0041 28.5437 26.033 28.8373C26.1857 30.3851 26.7313 31.8175 27.5687 33.0334C29.1885 35.3856 31.9003 36.9275 34.9722 36.9275Z" fill="white"/>
<path d="M44.271 18.0374C44.1695 17.6554 44.1154 17.2542 44.1154 16.8403C44.1154 15.2556 44.9084 13.8561 46.1192 13.017C44.4464 13.7788 43.9074 16.3903 43.8307 17.6419C43.7444 19.0513 42.7094 20.3177 40.7397 19.9417C39.5863 19.7215 38.4125 19.4777 37.3802 19.2881C37.6634 19.3667 37.9411 19.4589 38.2123 19.5639C40.3277 20.3822 42.0558 21.9785 43.0457 24.0017C43.6136 25.1622 43.9386 26.4633 43.9545 27.8387C44.0428 26.3839 43.8452 25.376 43.8307 24.1002C43.8097 22.2347 45.5109 21.4887 46.6403 21.4887C46.6403 21.4887 47.6881 21.4368 48.299 21.4657C48.1998 21.4559 48.1015 21.4429 48.0043 21.4269C47.3126 21.3133 46.6723 21.0469 46.1192 20.6635C45.2246 20.0436 44.5581 19.1178 44.271 18.0374Z" fill="white"/>
</g>
<path d="M45.5534 20.7388C45.5713 20.7388 45.5892 20.7387 45.607 20.7385C46.4286 20.7292 47.1991 20.5068 47.8656 20.1239C48.8054 19.584 49.5387 18.725 49.9176 17.6947C49.9467 17.6156 49.9737 17.5354 49.9985 17.4543C50.1307 17.023 50.2018 16.565 50.2018 16.0904C50.2018 15.5266 50.1014 14.9862 49.9176 14.4862C49.2642 12.7094 47.5568 11.442 45.5534 11.442C44.5709 11.442 43.6595 11.7469 42.9088 12.2672C41.698 13.1063 40.905 14.5058 40.905 16.0904C40.905 16.5043 40.9591 16.9056 41.0606 17.2875C41.3478 18.3679 42.0142 19.2937 42.9088 19.9137C43.4619 20.297 44.1022 20.5634 44.7939 20.6771C45.0411 20.7177 45.2948 20.7388 45.5534 20.7388Z" fill="url(#paint0_linear_583_10647)"/>
<path d="M4.38707 33.8929C6.80998 33.8929 8.77413 31.9288 8.77413 29.5059C8.77413 29.232 8.74904 28.964 8.70103 28.7041C8.68913 28.6396 8.67582 28.5757 8.66114 28.5123C8.2977 26.9426 7.09186 25.6957 5.54561 25.2734C5.17655 25.1726 4.78809 25.1188 4.38707 25.1188C3.93177 25.1188 3.49267 25.1881 3.07976 25.3169C1.29533 25.8732 8.6007e-08 27.5382 0 29.5059C-1.05909e-07 31.9288 1.96416 33.8929 4.38707 33.8929Z" fill="url(#paint1_linear_583_10647)"/>
<path d="M31.7618 36.1777C36.1704 36.1777 39.8372 33.0019 40.5993 28.8132C40.6948 28.2882 40.7447 27.7473 40.7447 27.1948C40.7447 27.1594 40.7445 27.1241 40.7441 27.0888C40.7282 25.7135 40.4032 24.4124 39.8353 23.2518C38.8454 21.2286 37.1173 19.6324 35.0019 18.814C34.7307 18.7091 34.453 18.6169 34.1698 18.5383C33.7525 18.4224 33.3229 18.336 32.8835 18.2812C32.5161 18.2355 32.1417 18.2119 31.7618 18.2119C30.8369 18.2119 29.9446 18.3517 29.105 18.6112C25.8801 19.6083 23.4315 22.3727 22.8908 25.7729C22.8171 26.236 22.7788 26.7109 22.7788 27.1948C22.7788 27.496 22.7937 27.7938 22.8226 28.0875C22.9753 29.6353 23.5209 31.0677 24.3583 32.2836C25.9782 34.6357 28.6899 36.1777 31.7618 36.1777Z" fill="url(#paint2_linear_583_10647)"/>
<path d="M14.2511 23.774C13.2763 23.7843 12.3332 23.6135 11.4675 23.2928C11.372 23.2575 11.2775 23.2203 11.1838 23.1813C9.10286 22.3157 7.47905 20.5718 6.77516 18.4124C6.52774 17.6534 6.39398 16.843 6.39398 16.0013C6.39398 18.4124 7.37245 19.8299 7.64782 20.793C7.92319 21.7561 7.60552 23.8976 5.78334 24.6833C5.09644 24.9795 3.804 24.9969 3.07976 25.3169C3.49267 25.1881 3.93177 25.1188 4.38707 25.1188C4.78809 25.1188 5.17655 25.1726 5.54561 25.2734C7.09186 25.6957 8.2977 26.9426 8.66114 28.5123C8.67582 28.5757 8.68913 28.6396 8.70103 28.7041C8.5859 27.9355 8.38126 27.0855 8.44138 26.5444C8.57402 25.3506 9.36456 23.9183 10.6411 23.6249C11.5397 23.4183 12.9455 23.7878 14.2511 23.774Z" fill="url(#paint3_linear_583_10647)"/>
<path d="M14.1671 8.22827C9.87411 8.22827 6.39398 11.7084 6.39398 16.0013C6.39398 16.843 6.52774 17.6534 6.77516 18.4124C7.47905 20.5718 9.10286 22.3157 11.1838 23.1813C11.2844 23.2166 11.3793 23.2541 11.4675 23.2928C12.3332 23.6135 13.2763 23.7843 14.2511 23.774C15.2991 23.681 16.3039 23.552 17.2733 23.1289C18.9067 22.4161 20.2477 21.1582 21.0665 19.5851C21.6246 18.5128 21.9401 17.2939 21.9401 16.0013C21.9401 15.3726 21.8655 14.7613 21.7245 14.1758C21.5024 13.253 21.1157 12.3944 20.5972 11.6327C19.1984 9.57776 16.8403 8.22827 14.1671 8.22827Z" fill="url(#paint4_linear_583_10647)"/>
<path d="M11.1838 23.1813C11.2775 23.2203 11.372 23.2575 11.4675 23.2928C11.3793 23.2541 11.2844 23.2166 11.1838 23.1813Z" fill="url(#paint5_linear_583_10647)"/>
<path d="M29.105 18.6112C29.9446 18.3517 30.8369 18.2119 31.7618 18.2119C32.1417 18.2119 32.5161 18.2355 32.8835 18.2812C30.1132 17.855 27.3625 19.1715 25.8651 19.5851C24.3677 19.9987 22.3454 19.2912 22.3454 16.9913C22.3454 15.3351 21.5981 12.4683 20.5972 11.6327C21.1157 12.3944 21.5024 13.253 21.7245 14.1758C21.8655 14.7613 21.9401 15.3726 21.9401 16.0013C21.9401 17.2939 21.6246 18.5128 21.0665 19.5851C20.2477 21.1582 18.9067 22.4161 17.2733 23.1289C16.3039 23.552 15.2991 23.681 14.2511 23.774C15.3243 23.774 17.4983 23.2615 18.4863 22.8811C21.0665 21.8878 22.6774 23.4059 22.5513 24.7487C22.4251 26.0914 22.5513 29.8823 24.3583 32.2836C23.5209 31.0677 22.9753 29.6353 22.8226 28.0875C22.7937 27.7938 22.7788 27.496 22.7788 27.1948C22.7788 26.7109 22.8171 26.236 22.8908 25.7729C23.4315 22.3727 25.8801 19.6083 29.105 18.6112Z" fill="url(#paint6_linear_583_10647)"/>
<path d="M56.6673 25.9905C56.6673 28.0823 54.9716 29.778 52.8798 29.778C51.1699 29.778 49.7247 28.645 49.2539 27.0888C49.1488 26.7412 49.0922 26.3724 49.0922 25.9905C49.0922 23.8987 50.788 22.203 52.8798 22.203C53.7212 22.203 54.541 22.5087 55.1273 22.9416C56.0615 23.6314 56.6673 24.7402 56.6673 25.9905Z" fill="url(#paint7_linear_583_10647)"/>
<path d="M41.0606 17.2875C40.9591 16.9056 40.905 16.5043 40.905 16.0904C40.905 14.5058 41.698 13.1063 42.9088 12.2672C41.236 13.0289 40.6971 15.6405 40.6204 16.892C40.534 18.3014 39.499 19.5679 37.5294 19.1918C36.376 18.9717 35.2021 18.7278 34.1698 18.5383C34.453 18.6169 34.7307 18.7091 35.0019 18.814C37.1173 19.6324 38.8454 21.2286 39.8353 23.2518C40.4032 24.4124 40.7282 25.7135 40.7441 27.0888C40.8324 25.6341 40.6348 24.6262 40.6204 23.3504C40.5993 21.4849 42.3005 20.7388 43.4299 20.7388C43.4299 20.7388 44.3851 20.7099 44.996 20.7388C45.5693 20.766 46.4595 20.8737 46.4595 20.8737C47.5523 21.074 49.641 21.9874 49.2539 24.0384C48.8668 26.0894 49.0402 26.3822 49.2539 27.0888C49.1488 26.7412 49.0922 26.3724 49.0922 25.9905C49.0922 23.8987 50.788 22.203 52.8798 22.203C53.7212 22.203 54.541 22.5087 55.1273 22.9416C55.0426 22.8808 54.6579 22.203 51.764 21.9642C50.8912 21.8922 49.3354 20.8391 49.7192 18.801C49.8291 18.2174 49.9237 17.7913 49.9985 17.4543C49.9737 17.5354 49.9467 17.6156 49.9176 17.6947C49.5387 18.725 48.8054 19.584 47.8656 20.1239C47.1991 20.5068 46.4286 20.7292 45.607 20.7385C45.5892 20.7387 45.5713 20.7388 45.5534 20.7388C45.2948 20.7388 45.0411 20.7177 44.7939 20.6771C44.1022 20.5634 43.4619 20.297 42.9088 19.9137C42.0142 19.2937 41.3478 18.3679 41.0606 17.2875Z" fill="url(#paint8_linear_583_10647)"/>
<ellipse opacity="0.5" cx="28.2609" cy="7.26339" rx="7.46165" ry="7.26339" fill="#F23C5B"/>
<ellipse opacity="0.5" cx="57.479" cy="7.26339" rx="7.46165" ry="7.26339" fill="white"/>
<defs>
<linearGradient id="paint0_linear_583_10647" x1="-7.61875e-07" y1="22.203" x2="43.2079" y2="22.203" gradientUnits="userSpaceOnUse">
<stop stop-color="#FE462D"/>
<stop offset="0.520833" stop-color="#E33091"/>
<stop offset="1" stop-color="#8D34FF"/>
</linearGradient>
<linearGradient id="paint1_linear_583_10647" x1="-7.61875e-07" y1="22.203" x2="43.2079" y2="22.203" gradientUnits="userSpaceOnUse">
<stop stop-color="#FE462D"/>
<stop offset="0.520833" stop-color="#E33091"/>
<stop offset="1" stop-color="#8D34FF"/>
</linearGradient>
<linearGradient id="paint2_linear_583_10647" x1="-7.61875e-07" y1="22.203" x2="43.2079" y2="22.203" gradientUnits="userSpaceOnUse">
<stop stop-color="#FE462D"/>
<stop offset="0.520833" stop-color="#E33091"/>
<stop offset="1" stop-color="#8D34FF"/>
</linearGradient>
<linearGradient id="paint3_linear_583_10647" x1="-7.61875e-07" y1="22.203" x2="43.2079" y2="22.203" gradientUnits="userSpaceOnUse">
<stop stop-color="#FE462D"/>
<stop offset="0.520833" stop-color="#E33091"/>
<stop offset="1" stop-color="#8D34FF"/>
</linearGradient>
<linearGradient id="paint4_linear_583_10647" x1="-7.61875e-07" y1="22.203" x2="43.2079" y2="22.203" gradientUnits="userSpaceOnUse">
<stop stop-color="#FE462D"/>
<stop offset="0.520833" stop-color="#E33091"/>
<stop offset="1" stop-color="#8D34FF"/>
</linearGradient>
<linearGradient id="paint5_linear_583_10647" x1="-7.61875e-07" y1="22.203" x2="43.2079" y2="22.203" gradientUnits="userSpaceOnUse">
<stop stop-color="#FE462D"/>
<stop offset="0.520833" stop-color="#E33091"/>
<stop offset="1" stop-color="#8D34FF"/>
</linearGradient>
<linearGradient id="paint6_linear_583_10647" x1="-7.61875e-07" y1="22.203" x2="43.2079" y2="22.203" gradientUnits="userSpaceOnUse">
<stop stop-color="#FE462D"/>
<stop offset="0.520833" stop-color="#E33091"/>
<stop offset="1" stop-color="#8D34FF"/>
</linearGradient>
<linearGradient id="paint7_linear_583_10647" x1="-7.61875e-07" y1="22.203" x2="43.2079" y2="22.203" gradientUnits="userSpaceOnUse">
<stop stop-color="#FE462D"/>
<stop offset="0.520833" stop-color="#E33091"/>
<stop offset="1" stop-color="#8D34FF"/>
</linearGradient>
<linearGradient id="paint8_linear_583_10647" x1="-7.61875e-07" y1="22.203" x2="43.2079" y2="22.203" gradientUnits="userSpaceOnUse">
<stop stop-color="#FE462D"/>
<stop offset="0.520833" stop-color="#E33091"/>
<stop offset="1" stop-color="#8D34FF"/>
</linearGradient>
</defs>
</svg>
