<svg width="161" height="147" viewBox="0 0 161 147" fill="none" xmlns="http://www.w3.org/2000/svg">
<path fill-rule="evenodd" clip-rule="evenodd" d="M82.4373 0.949369C97.4887 -1.32202 113.082 0.331911 126.494 7.54554C141.243 15.4777 156.887 26.5274 160.468 42.9167C163.995 59.0603 149.001 72.6381 144.169 88.4387C139.211 104.652 144.972 125.805 131.849 136.507C118.738 147.199 98.9505 142.392 82.4373 138.781C68.5754 135.75 58.4428 125.602 46.5456 117.853C33.7768 109.536 17.9057 105.06 10.3322 91.8175C1.91325 77.0968 -4.15918 57.7489 3.52449 42.6294C11.1655 27.5939 32.1752 27.3976 47.0677 19.5317C59.1394 13.1557 68.9445 2.98555 82.4373 0.949369Z" fill="#EEEEFF"/>
<path d="M53.6287 44.6316C48.7894 49.534 45.5103 55.7639 44.2059 62.5333C42.9016 69.3027 43.6307 76.3075 46.301 82.6617C48.9714 89.016 53.463 94.4343 59.2078 98.2313C64.9526 102.028 71.6925 104.033 78.575 103.993C85.4575 103.953 92.1736 101.869 97.8736 98.0048C103.574 94.1407 108.002 88.6702 110.598 82.2851C113.194 75.8999 113.841 68.8871 112.458 62.1334C111.074 55.3798 107.723 49.1887 102.826 44.3434C96.2632 37.8484 87.3937 34.2301 78.168 34.2842C68.9422 34.3382 60.1156 38.0602 53.6287 44.6316ZM98.23 88.8088C94.3464 92.743 89.3854 95.4353 83.9742 96.5451C78.5631 97.655 72.945 97.1327 67.8302 95.0442C62.7154 92.9557 58.3338 89.3948 55.2394 84.8119C52.1449 80.229 50.4767 74.8298 50.4455 69.2971C50.4144 63.7645 52.0218 58.3468 55.0645 53.7292C58.1072 49.1117 62.4485 45.5016 67.5395 43.3555C72.6304 41.2094 78.2423 40.6237 83.6656 41.6724C89.0889 42.7211 94.0799 45.3572 98.0075 49.2473C100.615 51.8303 102.69 54.9025 104.112 58.2886C105.535 61.6747 106.278 65.3082 106.299 68.9819C106.319 72.6555 105.617 76.2973 104.233 79.6992C102.849 83.1011 100.809 86.1966 98.23 88.8088Z" fill="white"/>
<path d="M103.156 93.9723C99.909 97.243 96.0501 99.8409 91.8003 101.618C87.5505 103.395 82.993 104.315 78.3879 104.328C69.0874 104.353 60.1579 100.677 53.5637 94.1068C46.9694 87.5371 43.2507 78.6125 43.2255 69.2963C43.2003 59.9801 46.8708 51.0354 53.4294 44.43L53.5713 44.2878C60.1299 37.6824 69.0395 33.9574 78.3399 33.9322C87.6404 33.9069 96.5699 37.5836 103.164 44.1533C109.758 50.723 113.477 59.6476 113.502 68.9639C113.527 78.2801 109.857 87.2247 103.298 93.8301L103.156 93.9723ZM53.9473 44.6798L53.8054 44.822C50.6088 48.0427 48.0768 51.8626 46.3539 56.0635C44.631 60.2643 43.7511 64.764 43.7643 69.3056C43.7775 73.8471 44.6835 78.3416 46.4307 82.5324C48.1779 86.7231 50.7321 90.5282 53.9473 93.7302C57.1626 96.9322 60.976 99.4685 65.1697 101.194C69.3635 102.92 73.8556 103.802 78.3895 103.788C87.546 103.762 96.317 100.092 102.773 93.588L102.915 93.4458C109.372 86.9423 112.985 78.1359 112.96 68.9639C112.934 59.7918 109.273 51.0054 102.78 44.5376C96.288 38.0698 87.4965 34.4505 78.3399 34.4757C69.1834 34.5009 60.4119 38.1687 53.955 44.6721L53.9473 44.6798ZM98.2992 89.1069C92.9628 94.1027 85.9001 96.8309 78.5967 96.7175C71.2933 96.604 64.3184 93.6579 59.1391 88.4987C53.9598 83.3395 50.9798 76.3694 50.8258 69.0544C50.6718 61.7393 53.3559 54.6496 58.3135 49.2763L58.4247 49.1648C63.7612 44.1689 70.8239 41.4408 78.1273 41.5542C85.4307 41.6676 92.4055 44.6138 97.5848 49.773C102.764 54.9322 105.744 61.9023 105.898 69.2173C106.052 76.5323 103.368 83.6221 98.4105 88.9954L98.2992 89.1069ZM98.0268 88.6111C102.886 83.3404 105.515 76.3879 105.363 69.2153C105.21 62.0426 102.287 55.2087 97.2083 50.1502C92.1295 45.0917 85.2906 42.2027 78.1294 42.0906C70.9681 41.9785 64.0425 44.6521 58.8084 49.5491L58.6971 49.6606C53.8382 54.9313 51.2086 61.8838 51.3613 69.0564C51.5139 76.229 54.4369 83.063 59.5157 88.1215C64.5944 93.18 71.4333 96.069 78.5946 96.1811C85.7558 96.2932 92.6815 93.6196 97.9156 88.7225L98.0268 88.6111Z" fill="#263238"/>
<path d="M52.2123 43.2273C47.3733 48.1293 44.0942 54.3587 42.7897 61.1276C41.4852 67.8965 42.2138 74.9008 44.8835 81.2549C47.5531 87.609 52.0439 93.0273 57.7878 96.8247C63.5318 100.622 70.2709 102.628 77.153 102.589C84.0351 102.55 90.751 100.467 96.4515 96.6043C102.152 92.7416 106.581 87.2724 109.178 80.8883C111.775 74.5042 112.424 67.492 111.043 60.7384C109.662 53.9849 106.312 47.7933 101.418 42.9467C94.8551 36.4484 85.9845 32.8273 76.7569 32.8799C67.5293 32.9325 58.7004 36.6545 52.2123 43.2273ZM96.8097 87.4007C92.9265 91.3359 87.9655 94.0293 82.5541 95.14C77.1427 96.2508 71.524 95.7291 66.4086 93.6409C61.2932 91.5527 56.9109 87.9919 53.816 83.4087C50.7211 78.8256 49.0525 73.426 49.0214 67.8929C48.9903 62.3597 50.598 56.9416 53.6411 52.3238C56.6843 47.706 61.0262 44.0959 66.1178 41.9501C71.2094 39.8043 76.8219 39.2192 82.2454 40.2688C87.669 41.3184 92.66 43.9556 96.5872 47.8468C101.852 53.063 104.833 60.1602 104.874 67.5776C104.916 74.995 102.015 82.1253 96.8097 87.4007Z" fill="white"/>
<path d="M101.745 92.5726C95.1732 99.1178 86.2769 102.783 77.0096 102.763C67.7423 102.743 58.8618 99.0395 52.3183 92.466C45.7747 85.8925 42.1031 76.9864 42.1097 67.7034C42.1164 58.4204 45.8008 49.5195 52.3537 42.9554C58.9067 36.3914 67.7925 32.7008 77.0598 32.6941C86.3271 32.6874 95.2182 36.3653 101.781 42.9199C108.343 49.4746 112.04 58.3701 112.06 67.6531C112.08 76.9361 108.421 85.8475 101.887 92.4304L101.745 92.5726ZM52.5397 43.2839L52.3977 43.4261C46.0717 49.9556 42.5695 58.7193 42.65 67.8177C42.7305 76.9162 46.3874 85.6163 52.828 92.0324C59.2686 98.4485 67.9739 102.064 77.0573 102.094C86.1406 102.125 94.8701 98.5685 101.354 92.1959L101.496 92.0537C107.822 85.5243 111.324 76.7606 111.243 67.6621C111.163 58.5637 107.506 49.8636 101.065 43.4475C94.6248 37.0314 85.9194 33.4163 76.8361 33.3856C67.7527 33.355 59.0232 36.9114 52.5397 43.2839ZM96.8878 87.7071C91.5508 92.7024 84.4879 95.4298 77.1845 95.3157C69.8812 95.2015 62.9066 92.2547 57.7279 87.0951C52.5491 81.9354 49.5697 74.965 49.4164 67.65C49.2631 60.335 51.9478 53.2455 56.9058 47.8727L57.0209 47.7574C62.3579 42.7621 69.4208 40.0347 76.7242 40.1488C84.0275 40.263 91.0021 43.2098 96.1808 48.3695C101.36 53.5291 104.339 60.4995 104.492 67.8145C104.646 75.1295 101.961 82.219 97.0029 87.5918L96.8878 87.7071ZM57.3969 48.1494L57.2818 48.2647C52.4224 53.5349 49.7923 60.4872 49.9442 67.6598C50.0962 74.8323 53.0185 81.6665 58.0967 86.7255C63.175 91.7845 70.0136 94.6742 77.1748 94.787C84.3359 94.8998 91.2619 92.227 96.4964 87.3305L96.6115 87.2152C101.471 81.945 104.101 74.9927 103.949 67.8201C103.797 60.6475 100.875 53.8133 95.7966 48.7544C90.7184 43.6954 83.8798 40.8057 76.7186 40.6929C69.5574 40.5801 62.6315 43.2529 57.3969 48.1494Z" fill="#263238"/>
<path d="M104.11 89.5995L100.403 93.388C99.7984 94.0054 99.8083 94.9965 100.425 95.6016L120.35 115.166C120.966 115.771 121.956 115.761 122.56 115.143L126.267 111.355C126.871 110.738 126.861 109.747 126.245 109.141L106.32 89.5774C105.703 88.9722 104.714 88.9821 104.11 89.5995Z" fill="#8533FF"/>
<path d="M122.801 116.57C122.456 116.911 121.991 117.103 121.507 117.103C121.022 117.104 120.557 116.914 120.211 116.574L100.376 96.9274C100.031 96.58 99.8382 96.1102 99.8384 95.6207C99.8365 95.379 99.8827 95.1393 99.9743 94.9156C100.066 94.6919 100.201 94.4887 100.372 94.3179L104.089 90.5477C104.44 90.2077 104.906 90.0152 105.394 90.0097C105.635 90.0078 105.875 90.054 106.098 90.1457C106.321 90.2375 106.524 90.3728 106.695 90.5439L126.53 110.19C126.875 110.534 127.071 111 127.074 111.487C127.078 111.974 126.889 112.443 126.549 112.792L122.828 116.558L122.801 116.57ZM104.473 90.932L100.752 94.706C100.632 94.8262 100.537 94.9688 100.472 95.1258C100.408 95.2828 100.375 95.4509 100.376 95.6207C100.378 95.9643 100.516 96.293 100.759 96.5354L120.599 116.185C120.843 116.426 121.173 116.56 121.516 116.558C121.684 116.559 121.851 116.526 122.006 116.461C122.162 116.396 122.303 116.301 122.421 116.182L126.143 112.415C126.383 112.17 126.517 111.84 126.515 111.496C126.513 111.153 126.375 110.824 126.131 110.582L106.292 90.932C106.172 90.8121 106.029 90.7171 105.873 90.6524C105.716 90.5878 105.548 90.5548 105.379 90.5554C105.038 90.554 104.71 90.6864 104.465 90.9244L104.473 90.932Z" fill="#263238"/>
<path d="M153.444 138.729L148.445 143.798C148.078 144.169 147.643 144.464 147.163 144.666C146.682 144.869 146.167 144.974 145.646 144.977C145.126 144.98 144.609 144.88 144.127 144.683C143.645 144.486 143.206 144.196 142.835 143.829L113.389 114.332C113.1 114.046 112.87 113.705 112.712 113.329C112.554 112.953 112.472 112.55 112.47 112.143C112.468 111.735 112.546 111.331 112.7 110.954C112.853 110.577 113.08 110.233 113.366 109.944L119.585 103.652C119.871 103.362 120.211 103.131 120.586 102.973C120.962 102.814 121.364 102.732 121.771 102.73C122.178 102.727 122.582 102.806 122.959 102.96C123.335 103.115 123.678 103.342 123.967 103.629L153.413 133.126C154.158 133.865 154.579 134.87 154.585 135.921C154.591 136.971 154.18 137.981 153.444 138.729Z" fill="#263238"/>
<path d="M148.618 143.998C147.827 144.79 146.754 145.237 145.635 145.241C144.516 145.245 143.441 144.805 142.644 144.017L113.198 114.521C112.564 113.891 112.205 113.036 112.2 112.141C112.194 111.247 112.544 110.388 113.171 109.751L119.394 103.448C120.023 102.817 120.876 102.46 121.766 102.458C122.656 102.455 123.511 102.805 124.144 103.433L153.594 132.933C153.989 133.325 154.303 133.791 154.519 134.304C154.734 134.817 154.846 135.368 154.849 135.925C154.852 136.481 154.745 137.033 154.535 137.549C154.325 138.064 154.016 138.533 153.625 138.929L148.622 143.994L148.618 143.998ZM119.774 103.837L113.555 110.136C113.294 110.4 113.087 110.713 112.947 111.058C112.807 111.402 112.736 111.771 112.738 112.143C112.74 112.514 112.816 112.882 112.96 113.225C113.104 113.568 113.314 113.879 113.578 114.14L143.024 143.636C143.719 144.322 144.656 144.705 145.631 144.701C146.607 144.698 147.541 144.308 148.231 143.617L153.234 138.552C153.575 138.207 153.845 137.798 154.029 137.348C154.212 136.898 154.305 136.417 154.303 135.931C154.3 135.445 154.202 134.965 154.014 134.517C153.826 134.069 153.552 133.663 153.207 133.321L123.76 103.825C123.229 103.299 122.512 103.005 121.765 103.007C121.018 103.009 120.302 103.308 119.774 103.837Z" fill="#263238"/>
</svg>
